<svg width="50" height="50" viewBox="0 0 50 50" fill="none" xmlns="http://www.w3.org/2000/svg">
<path d="M24.8676 14.7266C18.6947 14.7266 13.5801 19.7531 13.5801 26.0141C13.5801 32.2751 18.6065 37.3016 24.8676 37.3016C31.1286 37.3016 36.155 32.1869 36.155 26.0141C36.155 19.8413 31.0404 14.7266 24.8676 14.7266ZM24.8676 33.2451C20.8993 33.2451 17.6365 29.9824 17.6365 26.0141C17.6365 22.0458 20.8993 18.7831 24.8676 18.7831C28.8358 18.7831 32.0986 22.0458 32.0986 26.0141C32.0986 29.9824 28.8358 33.2451 24.8676 33.2451Z" fill="white"/>
<path d="M36.5964 17.0194C38.0088 17.0194 39.1537 15.8744 39.1537 14.462C39.1537 13.0497 38.0088 11.9047 36.5964 11.9047C35.184 11.9047 34.0391 13.0497 34.0391 14.462C34.0391 15.8744 35.184 17.0194 36.5964 17.0194Z" fill="white"/>
<path d="M43.2097 7.84831C40.9169 5.46736 37.6541 4.23279 33.9504 4.23279H15.7846C8.11269 4.23279 2.99805 9.34743 2.99805 17.0194V35.097C2.99805 38.8889 4.23261 42.1517 6.70175 44.5326C9.0827 46.8254 12.2573 47.9718 15.8728 47.9718H33.8622C37.6541 47.9718 40.8287 46.7372 43.1215 44.5326C45.5025 42.2398 46.737 38.9771 46.737 35.1852V17.0194C46.737 13.3157 45.5025 10.1411 43.2097 7.84831ZM42.8569 35.1852C42.8569 37.9189 41.8869 40.1234 40.2996 41.6226C38.7123 43.1217 36.5077 43.9153 33.8622 43.9153H15.8728C13.2273 43.9153 11.0227 43.1217 9.43544 41.6226C7.84813 40.0353 7.05448 37.8307 7.05448 35.097V17.0194C7.05448 14.3739 7.84813 12.1693 9.43544 10.582C10.9346 9.08288 13.2273 8.28922 15.8728 8.28922H34.0386C36.6841 8.28922 38.8887 9.08288 40.476 10.6702C41.9751 12.2575 42.8569 14.4621 42.8569 17.0194V35.1852Z" fill="white"/>
</svg>
