<svg width="50" height="50" viewBox="0 0 50 50" fill="none" xmlns="http://www.w3.org/2000/svg">
<path d="M46.5995 13.2865C45.0023 13.9964 43.2834 14.4753 41.4798 14.6896C43.3213 13.5872 44.7333 11.841 45.3992 9.75781C43.6767 10.78 41.77 11.5217 39.7389 11.9221C38.1134 10.19 35.7966 9.10693 33.2328 9.10693C28.3107 9.10693 24.3199 13.0977 24.3199 18.0207C24.3199 18.7183 24.3984 19.3983 24.5509 20.0518C17.1426 19.6797 10.5739 16.1316 6.17741 10.7385C5.41012 12.0544 4.97091 13.5854 4.97091 15.2206C4.97091 18.3127 6.5443 21.0414 8.93613 22.6395C7.47563 22.5927 6.10068 22.1914 4.89859 21.5238C4.89771 21.5609 4.89771 21.5988 4.89771 21.6367C4.89771 25.9547 7.9704 29.5565 12.0485 30.3768C11.3006 30.5796 10.513 30.689 9.69989 30.689C9.12486 30.689 8.56659 30.6334 8.02243 30.5284C9.15749 34.0695 12.4489 36.6474 16.3489 36.7188C13.2982 39.1098 9.45559 40.535 5.27871 40.535C4.55993 40.535 3.84996 40.4926 3.15234 40.4097C7.09816 42.94 11.783 44.4146 16.8163 44.4146C33.2125 44.4146 42.1774 30.8327 42.1774 19.0535C42.1774 18.6672 42.1695 18.2818 42.1527 17.899C43.8937 16.6449 45.4054 15.0742 46.5995 13.2865Z" fill="white"/>
</svg>
