<svg width="201" height="18" viewBox="0 0 201 18" fill="none" xmlns="http://www.w3.org/2000/svg">
<path fill-rule="evenodd" clip-rule="evenodd" d="M200.921 5.72485C200.101 3.60283 193.054 2.70936 171.874 1.9648C152.111 1.25746 129.105 -0.790107 88.9084 0.326742C58.1831 1.18299 19.9256 4.608 19.9256 6.50664C19.9256 7.88409 21.4171 7.92132 35.6611 6.69278C48.8238 5.57594 55.5729 5.31534 63.8135 5.01751C30.7764 7.92132 23.729 9.81997 6.12907 11.6442C-4.90816 12.7982 1.54265 16.1115 5.56975 15.7765C5.60704 15.7765 56.9526 11.6069 61.8 11.8303C62.2475 11.8675 57.3627 12.5376 50.9119 13.3194C32.9018 15.5531 36.3696 19.2756 49.8679 17.5631C95.2846 11.7927 138.017 10.0057 170.942 12.5C181.345 13.2818 182.501 13.2818 182.501 12.3139C182.501 10.6014 179.667 9.29877 175.23 9.03817C168.294 8.59143 141.596 7.32529 129.515 6.95301C128.583 6.91578 129.03 6.20882 129.851 6.13436C134.773 5.65039 173.85 6.0223 189.213 6.5435C200.511 6.91578 201.332 6.87892 200.921 5.72485Z" fill="#05FF00"/>
</svg>
